<svg xmlns="http://www.w3.org/2000/svg" viewBox="0 0 42.39 43.47"><defs><style>.cls-1{fill:#FFFFFF;}</style></defs><title>Asset 2</title><g id="Layer_2" data-name="Layer 2"><g id="Capa_1" data-name="Capa 1"><path class="cls-1" d="M42.07,1A5.27,5.27,0,0,0,37.53.18,7.75,7.75,0,0,0,33.7,2.55l-.47-.37A8.41,8.41,0,0,0,28.31.51,9.82,9.82,0,0,0,22,3.15L10,11.73a24.14,24.14,0,0,0-6.63,6.93c-4.43,7.2-5.12,17.2,2.15,22.39A12.67,12.67,0,0,0,13,43.47c5.06,0,10.43-2.86,14.37-7.66a24.17,24.17,0,0,0,4.4-8.52l4.18-14.07c1.51-3.74,1.13-7-1-9.53a6,6,0,0,1,3-1.91,3.64,3.64,0,0,1,3.15.55.82.82,0,0,0,1-1.31ZM32.7,11.36a37.36,37.36,0,0,0-1.34,4.31L29,25.4a23.44,23.44,0,0,1-3.88,7.21c-3.53,4.38-8.12,7-12.26,7A8.75,8.75,0,0,1,7.68,38c-5.46-3.9-4.43-12.12-.59-18.23a23.55,23.55,0,0,1,5.5-6l6.56-4.19a63.74,63.74,0,0,0,5.73-4,6.09,6.09,0,0,1,3.73-1.67,4.66,4.66,0,0,1,2.71,1C34,6.75,33.54,9.1,32.7,11.36Z"/><path class="cls-1" d="M21.93,18a3.77,3.77,0,0,0-2.25-.66c-3.28,0-8.07,3.28-10.16,6.21-2.59,3.63-2.19,8.38.9,10.58A6.1,6.1,0,0,0,14,35.28a8.41,8.41,0,0,0,6.71-3.72,18,18,0,0,0,2.74-7C24,21.4,23.43,19.09,21.93,18Zm-10,12.05a1.23,1.23,0,1,1,1-1.42A1.24,1.24,0,0,1,11.89,30.07Zm1.9-3.65a1.23,1.23,0,1,1,1.42,1A1.23,1.23,0,0,1,13.79,26.42ZM15.55,32a1.24,1.24,0,1,1,1-1.42A1.23,1.23,0,0,1,15.55,32Z"/></g></g></svg>