<svg xmlns="http://www.w3.org/2000/svg" viewBox="0 0 67.22 22.4"><defs><style>.cls-1{fill:#fff;}</style></defs><title>Asset 3</title><g id="Layer_2" data-name="Layer 2"><g id="Layer_1-2" data-name="Layer 1"><g id="Layer_2-2" data-name="Layer 2"><g id="Capa_1" data-name="Capa 1"><path class="cls-1" d="M21.36,4.92a2.69,2.69,0,0,0-2.31-.42A4,4,0,0,0,17.1,5.71l-.24-.19a4.23,4.23,0,0,0-2.5-.85A5,5,0,0,0,11.16,6l-6.1,4.36a12.29,12.29,0,0,0-3.37,3.52c-2.25,3.66-2.6,8.74,1.09,11.38A6.51,6.51,0,0,0,6.59,26.5a9.89,9.89,0,0,0,7.3-3.89,12.48,12.48,0,0,0,2.23-4.33l2.13-7.15a4.53,4.53,0,0,0-.51-4.85,3.12,3.12,0,0,1,1.52-1,1.89,1.89,0,0,1,1.6.28.42.42,0,0,0,.59-.08.41.41,0,0,0-.08-.58ZM16.6,10.18a19.15,19.15,0,0,0-.69,2.19l-1.19,5a12,12,0,0,1-2,3.66C11,23.21,8.62,24.54,6.51,24.54a4.5,4.5,0,0,1-2.63-.82c-2.77-2-2.25-6.16-.3-9.26a11.81,11.81,0,0,1,2.8-3.05L9.71,9.28a32.86,32.86,0,0,0,2.91-2,3,3,0,0,1,1.9-.85,2.34,2.34,0,0,1,1.37.5C17.26,7.84,17,9,16.6,10.18Z" transform="translate(0 -4.4)"/><path class="cls-1" d="M11.12,13.56A1.91,1.91,0,0,0,10,13.22c-1.67,0-4.1,1.67-5.16,3.16-1.32,1.84-1.12,4.25.45,5.37a3.14,3.14,0,0,0,1.82.59,4.28,4.28,0,0,0,3.41-1.89,9,9,0,0,0,1.39-3.56C12.17,15.28,11.88,14.11,11.12,13.56ZM6,19.68A.62.62,0,1,1,6.55,19h0a.63.63,0,0,1-.51.73H6Zm1-1.86a.62.62,0,0,1,.5-.72.63.63,0,0,1,.73.51.62.62,0,0,1-.51.72h0A.62.62,0,0,1,7,17.85v0Zm.87,2.85a.63.63,0,0,1-.73-.51.62.62,0,0,1,.5-.73.64.64,0,0,1,.74.51h0A.62.62,0,0,1,7.88,20.67Z" transform="translate(0 -4.4)"/></g></g><path class="cls-1" d="M32.35,26.5h-2.5a12.16,12.16,0,0,1-.18-1.56,3.08,3.08,0,0,1-3.12,1.86c-3.06,0-4.05-2.21-4.05-5.74V11.29c0-3.4,1.32-5.9,4.94-5.9,4.37,0,4.83,3.21,4.83,5.45v.67H29.06v-.83c0-1.1-.16-2.37-1.63-2.37-1.16,0-1.66.81-1.66,2.47V21.43c0,1.66.48,2.53,1.64,2.53,1.39,0,1.73-1.16,1.73-3.3v-3H27.32V14.86h5Z" transform="translate(0 -4.4)"/><path class="cls-1" d="M37.64,5.69V21.52c0,1.52.5,2.38,1.74,2.38s1.69-1,1.69-2.38V5.69h3.21V21.46c0,3.28-1.48,5.34-5,5.34-3.31,0-4.89-1.79-4.89-5.33V5.69Z" transform="translate(0 -4.4)"/><path class="cls-1" d="M49.37,20.93l-.73,5.57H45.38L48.73,5.69h4.53L56.74,26.5H53.39l-.82-5.57ZM52.19,18c-.48-3.53-.93-6.88-1.17-9.24H50.9c-.09,1.72-.71,6.17-1.13,9.24Z" transform="translate(0 -4.4)"/><path class="cls-1" d="M67.22,20.28v.81c0,2.38-.39,5.71-4.79,5.71-3.86,0-4.67-2.41-4.67-5.58V10.73c0-3.21,1.45-5.34,4.72-5.34,3.9,0,4.65,2.59,4.65,5.47v.93H63.91V10.48c0-1.38-.32-2.17-1.44-2.17S61,9.07,61,10.49v11c0,1.36.26,2.42,1.48,2.42S64,23,64,21.44V20.28Z" transform="translate(0 -4.4)"/></g></g></svg>